<mxfile host="app.diagrams.net" modified="2023-10-31T00:00:40.587Z" agent="Mozilla/5.0 (Windows NT 10.0; Win64; x64) AppleWebKit/537.36 (KHTML, like Gecko) Chrome/118.0.0.0 Safari/537.36 Edg/118.0.2088.76" etag="KbVwPQP5lIpukPOjP58o" version="22.0.8" type="device">
  <diagram name="Page-1" id="2Zg4MMncao3q_6XzKr93">
    <mxGraphModel dx="1188" dy="654" grid="1" gridSize="10" guides="1" tooltips="1" connect="1" arrows="1" fold="1" page="1" pageScale="1" pageWidth="827" pageHeight="1169" math="0" shadow="0">
      <root>
        <mxCell id="0" />
        <mxCell id="1" parent="0" />
        <mxCell id="rjcJI61fQwut4mg5fd0s-17" value="Proxy / Middleware" style="rounded=0;whiteSpace=wrap;html=1;fillColor=#FFF7E0;strokeColor=#d6b656;" vertex="1" parent="1">
          <mxGeometry x="329" y="66" width="120" height="60" as="geometry" />
        </mxCell>
        <mxCell id="rjcJI61fQwut4mg5fd0s-2" value="Service Bus" style="rounded=0;whiteSpace=wrap;html=1;" vertex="1" parent="1">
          <mxGeometry x="239" y="280" width="500" height="30" as="geometry" />
        </mxCell>
        <mxCell id="rjcJI61fQwut4mg5fd0s-3" value="" style="sketch=0;outlineConnect=0;fontColor=#232F3E;gradientColor=none;fillColor=#232F3D;strokeColor=none;dashed=0;verticalLabelPosition=bottom;verticalAlign=top;align=center;html=1;fontSize=12;fontStyle=0;aspect=fixed;pointerEvents=1;shape=mxgraph.aws4.client;" vertex="1" parent="1">
          <mxGeometry x="89" y="60" width="78" height="76" as="geometry" />
        </mxCell>
        <mxCell id="rjcJI61fQwut4mg5fd0s-1" value="Connections Pool" style="shape=cylinder3;whiteSpace=wrap;html=1;boundedLbl=1;backgroundOutline=1;size=15;" vertex="1" parent="1">
          <mxGeometry x="379" y="160" width="80" height="80" as="geometry" />
        </mxCell>
        <mxCell id="rjcJI61fQwut4mg5fd0s-26" style="edgeStyle=orthogonalEdgeStyle;rounded=0;orthogonalLoop=1;jettySize=auto;html=1;entryX=0.5;entryY=0;entryDx=0;entryDy=0;" edge="1" parent="1" source="rjcJI61fQwut4mg5fd0s-5" target="rjcJI61fQwut4mg5fd0s-25">
          <mxGeometry relative="1" as="geometry" />
        </mxCell>
        <mxCell id="rjcJI61fQwut4mg5fd0s-5" value="Service" style="rounded=0;whiteSpace=wrap;html=1;" vertex="1" parent="1">
          <mxGeometry x="619" y="66" width="120" height="60" as="geometry" />
        </mxCell>
        <mxCell id="rjcJI61fQwut4mg5fd0s-7" value="" style="endArrow=classic;html=1;rounded=0;entryX=0;entryY=0.25;entryDx=0;entryDy=0;" edge="1" parent="1" target="rjcJI61fQwut4mg5fd0s-5">
          <mxGeometry width="50" height="50" relative="1" as="geometry">
            <mxPoint x="450" y="80" as="sourcePoint" />
            <mxPoint x="229" y="30" as="targetPoint" />
          </mxGeometry>
        </mxCell>
        <mxCell id="rjcJI61fQwut4mg5fd0s-8" value="" style="endArrow=classic;html=1;rounded=0;exitX=0;exitY=0.75;exitDx=0;exitDy=0;" edge="1" parent="1" source="rjcJI61fQwut4mg5fd0s-5">
          <mxGeometry width="50" height="50" relative="1" as="geometry">
            <mxPoint x="509" y="150" as="sourcePoint" />
            <mxPoint x="449" y="110" as="targetPoint" />
          </mxGeometry>
        </mxCell>
        <mxCell id="rjcJI61fQwut4mg5fd0s-20" value="202 Response&lt;br&gt;" style="edgeLabel;html=1;align=center;verticalAlign=middle;resizable=0;points=[];" vertex="1" connectable="0" parent="rjcJI61fQwut4mg5fd0s-8">
          <mxGeometry x="0.0236" y="-1" relative="1" as="geometry">
            <mxPoint y="11" as="offset" />
          </mxGeometry>
        </mxCell>
        <mxCell id="rjcJI61fQwut4mg5fd0s-15" value="" style="endArrow=classic;html=1;rounded=0;entryX=0.25;entryY=1;entryDx=0;entryDy=0;" edge="1" parent="1" target="rjcJI61fQwut4mg5fd0s-17">
          <mxGeometry width="50" height="50" relative="1" as="geometry">
            <mxPoint x="359" y="280" as="sourcePoint" />
            <mxPoint x="359" y="120" as="targetPoint" />
          </mxGeometry>
        </mxCell>
        <mxCell id="rjcJI61fQwut4mg5fd0s-21" value="Response" style="edgeLabel;html=1;align=center;verticalAlign=middle;resizable=0;points=[];rotation=-90;" vertex="1" connectable="0" parent="rjcJI61fQwut4mg5fd0s-15">
          <mxGeometry x="0.013" relative="1" as="geometry">
            <mxPoint x="-10" y="-2" as="offset" />
          </mxGeometry>
        </mxCell>
        <mxCell id="rjcJI61fQwut4mg5fd0s-16" value="" style="endArrow=classic;html=1;rounded=0;" edge="1" parent="1">
          <mxGeometry width="50" height="50" relative="1" as="geometry">
            <mxPoint x="329" y="110" as="sourcePoint" />
            <mxPoint x="179" y="110" as="targetPoint" />
          </mxGeometry>
        </mxCell>
        <mxCell id="rjcJI61fQwut4mg5fd0s-30" value="Long Pooling" style="edgeLabel;html=1;align=center;verticalAlign=middle;resizable=0;points=[];" vertex="1" connectable="0" parent="rjcJI61fQwut4mg5fd0s-16">
          <mxGeometry x="-0.0171" y="-1" relative="1" as="geometry">
            <mxPoint x="5" y="-13" as="offset" />
          </mxGeometry>
        </mxCell>
        <mxCell id="rjcJI61fQwut4mg5fd0s-19" value="" style="endArrow=classic;startArrow=classic;html=1;rounded=0;entryX=0.75;entryY=1;entryDx=0;entryDy=0;exitX=0.5;exitY=0;exitDx=0;exitDy=0;exitPerimeter=0;" edge="1" parent="1" source="rjcJI61fQwut4mg5fd0s-1" target="rjcJI61fQwut4mg5fd0s-17">
          <mxGeometry width="50" height="50" relative="1" as="geometry">
            <mxPoint x="483" y="210" as="sourcePoint" />
            <mxPoint x="533" y="160" as="targetPoint" />
          </mxGeometry>
        </mxCell>
        <mxCell id="rjcJI61fQwut4mg5fd0s-25" value="Internal Service" style="rounded=1;whiteSpace=wrap;html=1;" vertex="1" parent="1">
          <mxGeometry x="619" y="170" width="120" height="60" as="geometry" />
        </mxCell>
        <mxCell id="rjcJI61fQwut4mg5fd0s-27" style="edgeStyle=orthogonalEdgeStyle;rounded=0;orthogonalLoop=1;jettySize=auto;html=1;entryX=0.88;entryY=0.033;entryDx=0;entryDy=0;entryPerimeter=0;" edge="1" parent="1" source="rjcJI61fQwut4mg5fd0s-25" target="rjcJI61fQwut4mg5fd0s-2">
          <mxGeometry relative="1" as="geometry" />
        </mxCell>
        <mxCell id="rjcJI61fQwut4mg5fd0s-28" value="" style="endArrow=none;html=1;rounded=0;entryX=0;entryY=0.25;entryDx=0;entryDy=0;" edge="1" parent="1" target="rjcJI61fQwut4mg5fd0s-17">
          <mxGeometry width="50" height="50" relative="1" as="geometry">
            <mxPoint x="180" y="81" as="sourcePoint" />
            <mxPoint x="239" y="40" as="targetPoint" />
          </mxGeometry>
        </mxCell>
        <mxCell id="rjcJI61fQwut4mg5fd0s-29" value="" style="endArrow=none;dashed=1;html=1;strokeWidth=1;rounded=0;exitX=0;exitY=0.25;exitDx=0;exitDy=0;" edge="1" parent="1" source="rjcJI61fQwut4mg5fd0s-17">
          <mxGeometry width="50" height="50" relative="1" as="geometry">
            <mxPoint x="330" y="80" as="sourcePoint" />
            <mxPoint x="450" y="80" as="targetPoint" />
          </mxGeometry>
        </mxCell>
      </root>
    </mxGraphModel>
  </diagram>
</mxfile>
